
<svg width="192" height="216" viewBox="0 0 192 216" fill="none" xmlns="http://www.w3.org/2000/svg">
  <ellipse cx="96.3393" cy="117.329" rx="95.5" ry="98.4576" fill="#D9D9D9"/>

  <mask id="mask0_2_39" style="mask-type:alpha" maskUnits="userSpaceOnUse" x="0" y="18" width="192" height="198">
  <ellipse cx="96.3393" cy="117.329" rx="95.5" ry="98.4576" fill="#D9D9D9"/>
  </mask>

  <g mask="url(#mask0_2_39)">
    <path d="M132.512 150.455L185.448 172.582C169.14 188.481 128.502 220.475 96.4197 221.262C56.3167 222.246 16.7484 198.889 21.026 188.563C24.4481 180.302 52.752 163.814 66.4761 156.602L132.512 150.455Z" fill="#081A4E"/>
  </g>

  <path d="M138.189 104.785C136.66 104.852 134.146 102.93 133.204 102.293C134.783 90.7181 138.272 68.6147 138.937 67.8172C139.767 66.8203 142.506 66.2192 143.918 66.8007C145.33 67.3822 146.953 69.4296 146.953 71.1742C146.953 72.9188 147.576 73.217 147.576 76.4569C147.576 79.6968 146.33 82.0229 145.749 84.1829C145.359 85.6305 146.33 88.5858 145.749 92.4073C143.779 105.353 140.1 104.702 138.189 104.785Z" fill="#B89B8B" stroke="#8E7769"/>
  <path d="M51.1346 111.18C53.5156 111.077 54.3697 109.757 54.4991 109.11L49.7112 76.7593C47.2094 74.9045 41.8176 71.5832 40.2648 73.136C38.3238 75.077 39.6178 76.2417 40.2648 78.7003C40.9118 81.159 40.2648 82.7882 41.0458 85.4549C42.25 89.5665 42.8528 92.3884 42.8528 96.1696C42.8528 109.749 48.1584 111.31 51.1346 111.18Z" fill="#B89B8B" stroke="#8E7769"/>
  <path d="M136.747 149.774C138.716 154.368 150.5 162.923 155 164.757C147.742 176.034 127.517 196.816 105.665 198.194C83.6577 199.582 69.0482 194.06 61 162.257C63 161.757 64.7147 156.969 64.7147 155.369C64.7147 153.769 65.1789 144.366 63.1789 136.866C61.8523 135.14 60.7535 133.45 59.8732 131.903C54.0135 121.611 49.2349 96.2267 48.5262 89.1402C47.4052 73.6523 45.3305 41.5723 45.9997 37.1554C46.8363 31.6342 62.5 20.9266 85.3169 19.2535C108.134 17.5804 120.117 21.5958 126.307 27.6188C131.259 32.4373 135.331 65.9164 136.747 82.0537C136.747 96.7331 135.527 113.471 133.5 120.085C133.167 125.085 133.147 141.374 136.747 149.774Z" fill="#D1B6A6"/>
  <path d="M135.443 80.0437L136.481 84.9248C137.599 93.1228 135.576 107.246 135.576 111.718C135.576 119.418 129.634 130.582 121.097 139.479C109.359 151.712 95.29 155.387 79.9205 149.913C70.8804 146.693 61.3508 136.933 57.5623 127.741L51.4138 107.06L48.2464 91.4091C51.2275 99.545 56.8171 112.985 57.5623 115.817C58.4939 119.357 68.9278 128.486 69.1141 124.015C69.3004 119.543 71.5362 113.208 76.0078 111.718C80.4795 110.227 83.6305 111.718 93.1491 111.718C102.838 111.718 101.716 110.12 109.359 110.227C115.509 110.314 117.493 118.532 117.493 124.015C119.294 122.959 124.545 119.603 128.736 113.395C133.766 105.942 135.381 89.8565 135.443 80.0437Z" fill="black" fill-opacity="0.1"/>
  <path d="M133.5 120.085C133.167 125.085 133.147 141.374 136.747 149.774C138.716 154.368 150.5 162.923 155 164.757C147.742 176.034 127.517 196.816 105.665 198.194C83.6577 199.582 69.0482 194.06 61 162.257C63 161.757 64.7147 156.969 64.7147 155.369C64.7147 153.769 65.1789 144.366 63.1789 136.866M133.5 120.085C135.527 113.471 136.747 96.7331 136.747 82.0537C135.331 65.9164 131.259 32.4373 126.307 27.6188C120.117 21.5958 108.134 17.5804 85.3169 19.2535C62.5 20.9266 46.8363 31.6342 45.9997 37.1554C45.3305 41.5723 47.4052 73.6523 48.5262 89.1402C49.2349 96.2267 54.0135 121.611 59.8732 131.903C64.8111 140.577 76.6195 153.782 96.976 152.387C116.091 151.077 130.966 128.352 133.5 120.085Z" stroke="#A18A7C"/>
  <path d="M136.381 83.274L142.887 67.0093C142.887 55.1456 143.844 31.4182 126.048 20.7027C119.734 1.18502 100.216 1.75907 87.5869 1.18502C74.9579 0.610969 49.317 16.3017 42.4284 27.7826C36.9176 36.9674 39.8133 63.0547 42.4284 75.62C45.2349 84.3583 49.4653 93.6464 48.3603 87.101C45.8727 72.3671 54.6136 58.5486 51.9959 55.1456C46.2554 47.683 52.7613 30.0788 63.6682 26.4431C74.5751 22.8075 81.6875 28.9188 92.562 27.7826C105.382 26.4431 111.268 19.691 119.925 24.9124C129.569 30.7294 128.727 49.0224 127.196 56.6764C128.217 57.6969 131.597 59.5466 133.128 65.2871C133.818 67.8745 135.488 77.3421 136.381 83.274Z" fill="#402B29" stroke="#2B1D1B"/>
  <path d="M111.101 121.398C96.7641 126.483 88.7192 126.522 74.3611 122.803" stroke="#705C50"/>
  <path d="M98.9962 68.9755L96.3393 74.2892C100.018 73.063 106.045 70.6437 111.463 70.5083C116.881 70.3729 123.249 72.9948 127.098 74.2892C122.295 67.5449 115.04 66.523 111.463 66.523C105.741 66.523 101.926 67.9536 98.9962 68.9755Z" fill="#54332E"/>
  <path d="M82.6005 71.3037L83.8472 74.9839C80.1685 73.7577 75.3552 73.4797 70.1337 74.0991C64.9122 74.7185 60.1432 78.1878 56.2942 79.4822C61.097 72.7378 66.4164 70.4713 70.1337 69.9404C75.7987 69.1314 79.6711 70.2818 82.6005 71.3037Z" fill="#54332E"/>

  <circle cx="109.428" cy="79.2175" r="3.5493" fill="black"/>
  <circle cx="70.8118" cy="82.1306" r="3.5493" fill="black"/>

  <path d="M86.184 78.8937C87.8257 86.9932 84.841 94.4523 83.9654 100.144C83.0897 105.835 87.8144 107.858 90.8791 107.749C93.9437 107.639 99.0988 104.306 100.741 105.272C102.384 106.238 96.8255 106.137 94.4397 106.841" stroke="#705C50"/>
</svg>
